<svg width="241" height="91" viewBox="0 0 241 91" fill="none" xmlns="http://www.w3.org/2000/svg">
<g id="small">
<g id="Vector">
<path d="M134.653 90.723C146.068 77.7734 157.484 64.8292 169.434 51.2724C168.349 50.468 167.296 49.8768 166.487 49.0458C164.456 46.9576 163.752 44.3901 164.308 41.5243C164.884 38.5679 167.281 37.055 170.206 37.7955C175.443 39.1165 179.601 42.3233 183.34 45.9988C186.874 49.4719 190.259 53.1315 193.349 57.0041C197.512 62.2244 197.089 65.6868 192.434 70.4437C189.715 73.2243 186.377 74.9502 182.774 76.0902C176.876 77.9546 171.02 80.1013 164.747 80.3942C163.467 80.4528 162.186 80.4049 160.822 79.9255C161.372 79.6005 161.911 79.2596 162.472 78.9507C168.54 75.5948 174.639 72.3028 180.648 68.8456C182.097 68.0093 183.33 66.7149 184.488 65.4684C185.43 64.451 185.245 63.2791 184.213 62.299C184.166 62.251 184.118 62.2084 184.07 62.1605C180.997 59.236 180.41 59.1242 177.157 61.8781C164.583 72.5052 150.39 80.7725 136.811 89.9346C136.187 90.3554 135.484 90.6484 134.817 91C134.764 90.9094 134.711 90.8189 134.653 90.7283V90.723Z" fill="#181717"/>
<path d="M160.906 31.3287C159.573 24.9844 159.584 18.7147 161.081 12.4983C162.07 8.39132 164.234 4.92355 167.519 2.27078C170.28 0.0441586 173.496 -0.477872 176.871 0.411711C183.658 2.20153 189.217 5.65865 192.254 12.3598C192.444 12.7806 192.64 13.2174 192.719 13.6702C193.079 15.8063 192.899 17.9583 191.127 19.3167C189.498 20.5632 187.456 20.1104 185.922 18.9864C183.97 17.5482 182.288 15.7424 180.473 14.1177C179.294 13.063 178.156 11.9337 176.86 11.0388C173.983 9.04653 171.364 9.13708 169.116 11.8271C167.328 13.9685 165.842 16.5094 164.81 19.1089C163.255 23.0242 162.213 27.1471 160.906 31.334V31.3287Z" fill="#181717"/>
<path d="M238.047 20.9627C237.915 23.0775 238.074 25.2615 237.603 27.2963C235.979 34.3597 233.033 40.7892 227.129 45.2904C225.082 46.8512 222.606 48.0604 220.141 48.7742C218.597 49.2216 216.343 49.0032 215.031 48.135C208.901 44.0866 205.192 38.3922 205.155 30.8067C205.15 29.3259 205.859 27.6905 206.658 26.3855C207.901 24.3453 209.789 24.1482 211.482 25.8261C212.482 26.8169 213.259 28.122 213.847 29.4218C214.666 31.2222 215.079 33.2145 215.915 35.0043C216.544 36.352 217.449 37.6251 218.449 38.7331C219.755 40.1873 221.395 40.3578 223.104 39.3084C229.891 35.1375 234.678 29.3525 237.19 21.7191C237.28 21.4421 237.381 21.1705 237.476 20.8988C237.667 20.9201 237.857 20.9414 238.047 20.9627Z" fill="#181717"/>
<path d="M207.991 3.62913C212.963 3.7623 217.116 8.40731 216.968 13.6702C216.825 18.8 212.471 23.152 207.562 23.0828C202.669 23.0135 198.66 18.3951 198.771 12.9564C198.871 7.97583 203.294 3.50128 207.996 3.62913H207.991Z" fill="#181717"/>
</g>
<path id="Vector_2" fill-rule="evenodd" clip-rule="evenodd" d="M9.84882 21.2253C8.63749 21.4738 6.95125 22.0878 6.10128 22.5898C0.764814 25.7442 -1.38011 35.0901 1.64823 41.9948C2.28735 43.4529 4.92542 46.6476 8.8909 50.7661C15.5538 57.6867 16.3601 59.0921 16.3601 63.7858C16.3601 67.3251 14.0703 68.9518 12.1306 66.7898C11.4783 66.0628 11.2918 64.8118 11.2918 61.1662V56.4776H5.64614H0L0.290417 62.229C0.644694 69.2514 1.30916 71.4287 3.9371 74.1812C6.29743 76.6541 9.86707 77.9511 14.2983 77.9465C18.2719 77.9429 20.6855 77.1398 22.9632 75.0641C26.0214 72.2774 27.1719 68.7028 27.2186 61.8456C27.2728 53.8826 26.4355 52.2257 17.9394 43.4943C11.1869 36.5548 10.0825 34.7291 11.2761 32.4797C12.0155 31.085 14.6009 31.0447 15.3287 32.4158C15.6171 32.9598 15.8533 34.3401 15.8533 35.4832V37.5619H21.502H27.1507L26.8516 33.9628C26.3169 27.5304 23.4862 23.2079 18.8943 21.8122C16.1523 20.9789 12.2771 20.7274 9.84882 21.2253ZM71.556 21.1988C66.9311 22.008 63.6017 24.7876 62.1152 29.082C61.321 31.3764 61.215 33.7297 61.215 49.0647C61.215 68.3347 61.3919 69.6277 64.5627 73.5074C67.1764 76.7057 69.6022 77.6868 74.8996 77.6868C80.197 77.6868 82.6228 76.7057 85.2365 73.5074C88.4073 69.6277 88.5842 68.3347 88.5842 49.0647C88.5842 33.7552 88.4772 31.3739 87.6876 29.0928C86.6744 26.1664 83.9172 23.1599 81.235 22.0561C78.8823 21.0873 74.4409 20.6942 71.556 21.1988ZM31.0584 49.2569V77.4383H36.6335H42.2087V66.4467V55.4552L44.8696 55.4429C51.1584 55.4132 54.3211 53.7338 56.314 49.3669C57.428 46.9257 57.6485 45.6103 57.8269 40.3517C58.0742 33.0692 57.4391 29.4061 55.354 26.0898C52.904 22.1931 50.9227 21.573 40.0547 21.301L31.0584 21.0756V49.2569ZM93.2724 21.4943C93.0636 21.7085 92.8923 34.3835 92.8923 49.6613V77.4383H98.7209H104.549V64.6574C104.549 52.2175 104.576 51.8765 105.563 51.8765C106.121 51.8765 107.033 52.3366 107.59 52.899C108.545 53.8622 108.604 54.6029 108.604 65.6799V77.4383H113.888H119.173L119.337 66.8302C119.547 53.2814 119.32 51.5836 117.032 49.5601L115.281 48.01L116.662 47.2099C118.703 46.029 119.839 43.1252 120.135 38.3323C120.465 33.0032 119.569 27.6628 117.919 25.124C115.859 21.9559 114.281 21.5444 103.282 21.3102C97.9859 21.1972 93.4812 21.28 93.2724 21.4943ZM122.289 26.8259V32.4495H125.583H128.878V54.9439V77.4383H134.199H139.521V54.9439V32.4495H142.816H146.11V26.8259V21.2023H134.199H122.289V26.8259ZM42.2087 38.3927V45.3582L43.8559 45.0321C44.7617 44.8521 45.7748 44.3378 46.1073 43.8884C47.3338 42.229 47.5036 37.1555 46.458 33.3871C46.2523 32.6438 43.8813 31.4271 42.64 31.4271C42.4028 31.4271 42.2087 34.5615 42.2087 38.3927ZM72.8631 32.6474C72.1779 33.7021 72.0907 36.065 72.2179 50.0708C72.3578 65.4278 72.4166 66.3123 73.3492 66.9999C74.6193 67.9355 75.3983 67.9155 76.3841 66.9217C77.0754 66.2238 77.1804 63.9151 77.1804 49.3863C77.1804 37.0537 77.0202 32.4925 76.5722 32.0405C75.5707 31.0303 73.7166 31.3335 72.8631 32.6474ZM104.549 37.0507V42.163H106.306C108.591 42.163 109.111 41.1457 109.111 36.6754C109.111 32.6985 108.647 31.9383 106.222 31.9383H104.549V37.0507Z" fill="#181717"/>
<path id="Vector_3" fill-rule="evenodd" clip-rule="evenodd" d="M155.382 44.6154L155.533 68.2601L156.741 70.9558C158.719 75.3724 162.061 77.5308 167.755 78.0707C172.164 78.4884 175.54 77.5416 178.263 75.1239C182.442 71.4129 182.363 71.9721 182.548 44.871L182.712 20.9707H177.416H172.12L171.742 34.6463C171.535 42.1681 171.48 51.993 171.622 56.4802C171.77 61.2014 171.67 65.2417 171.384 66.0689C170.693 68.0689 168.603 68.5535 167.358 67.0024C166.49 65.9212 166.43 64.3956 166.43 43.4084V20.9707H160.831H155.232L155.382 44.6154ZM187.21 49.3443V77.7179H192.659L198.107 77.7184L197.931 66.4707L197.754 55.2235H201.42C206.322 55.2235 208.676 54.4357 210.776 52.0907C213.293 49.2809 214.261 45.4814 214.279 38.3527C214.297 30.7517 213.317 27.2318 210.349 24.2375C209.109 22.987 207.406 21.8771 206.215 21.5438C205.101 21.2314 200.369 20.9753 195.7 20.9738L187.21 20.9707V49.3443ZM198.36 38.0332C198.36 44.9686 198.365 44.9988 199.531 44.9988C201.361 44.9988 202.428 43.8884 202.984 41.4058C203.56 38.8307 203.134 33.7194 202.243 32.5149C201.919 32.0778 200.914 31.5737 200.008 31.3938L198.36 31.0676V38.0332Z" fill="#FFBE12"/>
</g>
</svg>
